<svg xmlns="http://www.w3.org/2000/svg" width="60" height="60" viewBox="0 0 60 60"><g transform="translate(-20 -147)"><rect width="60" height="60" rx="10" transform="translate(20 147)" fill="#e9a51e"/><circle cx="20" cy="20" r="20" transform="translate(30 157)" fill="#fff"/><g transform="translate(11.09 137)"><path d="M48.552,43.246a9.961,9.961,0,0,0,.081-1.209,9.718,9.718,0,0,0-5.517-8.746,4.433,4.433,0,0,0,.119-.972,4.319,4.319,0,0,0-8.638,0,4.432,4.432,0,0,0,.119.972A9.718,9.718,0,0,0,29.2,42.037a9.961,9.961,0,0,0,.081,1.209A4.319,4.319,0,1,0,33.6,50.161a9.658,9.658,0,0,0,10.625,0,4.319,4.319,0,1,0,4.319-6.916ZM38.915,30.159a2.159,2.159,0,1,1-2.159,2.159A2.159,2.159,0,0,1,38.915,30.159ZM30.277,49.595a2.159,2.159,0,1,1,2.159-2.159A2.159,2.159,0,0,1,30.277,49.595Zm8.638,0a7.5,7.5,0,0,1-4.395-1.42,4.189,4.189,0,0,0,.076-.74,4.319,4.319,0,0,0-3.126-4.13,7.5,7.5,0,0,1,4.249-8.1,4.265,4.265,0,0,0,6.392,0,7.558,7.558,0,0,1,4.362,6.829,7.017,7.017,0,0,1-.113,1.269,4.319,4.319,0,0,0-3.126,4.13,4.189,4.189,0,0,0,.076.74,7.5,7.5,0,0,1-4.395,1.42Zm8.638,0a2.159,2.159,0,1,1,2.159-2.159A2.159,2.159,0,0,1,47.553,49.595Z" fill="#e9a51e"/></g></g></svg>