<svg xmlns="http://www.w3.org/2000/svg" width="60" height="60" viewBox="0 0 60 60"><g transform="translate(-20 -147)"><rect width="60" height="60" rx="10" transform="translate(20 147)" fill="#62e91e"/><circle cx="20" cy="20" r="20" transform="translate(30 157)" fill="#fff"/><g transform="translate(11 138)"><path d="M31.417,26H27.083A1.083,1.083,0,0,0,26,27.083v4.334A1.083,1.083,0,0,0,27.083,32.5h4.334A1.083,1.083,0,0,0,32.5,31.417V27.083A1.083,1.083,0,0,0,31.417,26Zm-1.083,4.334H28.167V28.167h2.167Z" fill="#62e91e"/><path d="M45.083,32.5h4.334A1.083,1.083,0,0,0,50.5,31.417V27.083A1.083,1.083,0,0,0,49.417,26H45.083A1.083,1.083,0,0,0,44,27.083v4.334A1.083,1.083,0,0,0,45.083,32.5Zm1.083-4.334h2.167v2.167H46.167Z" transform="translate(-8.249)" fill="#62e91e"/><path d="M67.417,26H63.083A1.083,1.083,0,0,0,62,27.083v4.334A1.083,1.083,0,0,0,63.083,32.5h4.334A1.083,1.083,0,0,0,68.5,31.417V27.083A1.083,1.083,0,0,0,67.417,26Zm-1.083,4.334H64.167V28.167h2.167Z" transform="translate(-16.498)" fill="#62e91e"/><path d="M27.083,50.5h4.334A1.083,1.083,0,0,0,32.5,49.417V45.083A1.083,1.083,0,0,0,31.417,44H27.083A1.083,1.083,0,0,0,26,45.083v4.334A1.083,1.083,0,0,0,27.083,50.5Zm1.083-4.334h2.167v2.167H28.167Z" transform="translate(0 -8.249)" fill="#62e91e"/><path d="M44,49.417A1.083,1.083,0,0,0,45.083,50.5h4.334A1.083,1.083,0,0,0,50.5,49.417V45.083A1.083,1.083,0,0,0,49.417,44H45.083A1.083,1.083,0,0,0,44,45.083Zm2.167-3.25h2.167v2.167H46.167Z" transform="translate(-8.249 -8.249)" fill="#62e91e"/><path d="M67.417,44H63.083A1.083,1.083,0,0,0,62,45.083v4.334A1.083,1.083,0,0,0,63.083,50.5h4.334A1.083,1.083,0,0,0,68.5,49.417V45.083A1.083,1.083,0,0,0,67.417,44Zm-1.083,4.334H64.167V46.167h2.167Z" transform="translate(-16.498 -8.249)" fill="#62e91e"/><path d="M26,67.417A1.083,1.083,0,0,0,27.083,68.5h4.334A1.083,1.083,0,0,0,32.5,67.417V63.083A1.083,1.083,0,0,0,31.417,62H27.083A1.083,1.083,0,0,0,26,63.083Zm2.167-3.25h2.167v2.167H28.167Z" transform="translate(0 -16.498)" fill="#62e91e"/><path d="M44,67.417A1.083,1.083,0,0,0,45.083,68.5h4.334A1.083,1.083,0,0,0,50.5,67.417V63.083A1.083,1.083,0,0,0,49.417,62H45.083A1.083,1.083,0,0,0,44,63.083Zm2.167-3.25h2.167v2.167H46.167Z" transform="translate(-8.249 -16.498)" fill="#62e91e"/><path d="M67.417,62H63.083A1.083,1.083,0,0,0,62,63.083v4.334A1.083,1.083,0,0,0,63.083,68.5h4.334A1.083,1.083,0,0,0,68.5,67.417V63.083A1.083,1.083,0,0,0,67.417,62Zm-1.083,4.334H64.167V64.167h2.167Z" transform="translate(-16.498 -16.498)" fill="#62e91e"/></g></g></svg>