<svg xmlns="http://www.w3.org/2000/svg" width="60" height="60" viewBox="0 0 60 60"><g transform="translate(-20 -147)"><path d="M10,0H50A10,10,0,0,1,60,10V50A10,10,0,0,1,50,60H10A10,10,0,0,1,0,50V10A10,10,0,0,1,10,0Z" transform="translate(20 147)" fill="#e9401e"/><circle cx="20" cy="20" r="20" transform="translate(30 157)" fill="#fff"/><g transform="translate(10.015 137.994)"><path d="M47.494,40.087a4.334,4.334,0,1,0-2.9-7.53L39.8,30.645a3.792,3.792,0,1,0-1.083,1.9l4.669,1.869a4.2,4.2,0,0,0-.228,1.338,4.562,4.562,0,0,0,.081.823l-7.324,3.25a4.334,4.334,0,1,0-.688,5.623l4.789,1.912a3.792,3.792,0,1,0,1.083-1.9l-4.669-1.869a4.2,4.2,0,0,0,.228-1.338,1.167,1.167,0,0,0-.038-.363l7.584-3.364a4.29,4.29,0,0,0,3.288,1.56ZM32.327,44.421a2.167,2.167,0,1,1,2.167-2.167A2.167,2.167,0,0,1,32.327,44.421ZM43.7,46.587a1.587,1.587,0,1,1-1.544,1.083A1.625,1.625,0,0,1,43.7,46.587Zm3.792-13a2.167,2.167,0,1,1-2.167,2.167A2.167,2.167,0,0,1,47.494,33.587ZM36.119,31.42a1.587,1.587,0,1,1,1.544-1.083,1.625,1.625,0,0,1-1.544,1.083Z" fill="#e9401e"/></g></g></svg>