<svg xmlns="http://www.w3.org/2000/svg" width="60" height="60" viewBox="0 0 60 60"><g transform="translate(-20 -147)"><path d="M10,0H50A10,10,0,0,1,60,10V50A10,10,0,0,1,50,60H10A10,10,0,0,1,0,50V10A10,10,0,0,1,10,0Z" transform="translate(20 147)" fill="#e91ec7"/><circle cx="20" cy="20" r="20" transform="translate(30 157)" fill="#fff"/><g transform="translate(10 136.988)"><path d="M52.775,48.032a1.13,1.13,0,0,0,.034-1.306,11.655,11.655,0,0,0-6.879-4.85l-.565-.141a1.13,1.13,0,0,0-1.074.3l-1.509,1.5a1.566,1.566,0,0,1-2.171,0L36.468,39.4a1.537,1.537,0,0,1,0-2.171l1.5-1.509a1.13,1.13,0,0,0,.3-1.068l-.141-.565A11.655,11.655,0,0,0,33.28,27.2a1.13,1.13,0,0,0-1.306.034l-.565.424A11.084,11.084,0,0,0,27,36.473a10.954,10.954,0,0,0,3.228,7.795l5.511,5.511a10.954,10.954,0,0,0,7.795,3.228A11.084,11.084,0,0,0,52.351,48.6Zm-9.242,2.713a8.7,8.7,0,0,1-6.218-2.566L31.8,42.668a8.7,8.7,0,0,1-2.566-6.218,8.806,8.806,0,0,1,3.391-6.93,9.377,9.377,0,0,1,3.261,5.031L34.834,35.6a3.8,3.8,0,0,0,0,5.37l4.143,4.143a3.883,3.883,0,0,0,5.37,0L45.4,44.064a9.338,9.338,0,0,1,5.065,3.29,8.807,8.807,0,0,1-6.93,3.391Z" transform="translate(0)" fill="#e91ec7"/><path d="M53.337,38.841a1.13,1.13,0,0,0,1.594,0l5.986-5.98v2.922a1.13,1.13,0,0,0,2.261,0V30.13A1.13,1.13,0,0,0,62.048,29H56.4a1.13,1.13,0,1,0,0,2.261h2.922l-5.98,5.986A1.13,1.13,0,0,0,53.337,38.841Z" transform="translate(-11.307 -0.864)" fill="#e91ec7"/></g></g></svg>