<svg xmlns="http://www.w3.org/2000/svg" width="60" height="60" viewBox="0 0 60 60"><g transform="translate(-20 -147)"><path d="M10,0H50A10,10,0,0,1,60,10V50A10,10,0,0,1,50,60H10A10,10,0,0,1,0,50V10A10,10,0,0,1,10,0Z" transform="translate(20 147)" fill="#1ee9a5"/><circle cx="20" cy="20" r="20" transform="translate(30 157)" fill="#fff"/><g transform="translate(10 137)"><path d="M35.738,49.778a10.954,10.954,0,0,0,7.794,3.227A11.084,11.084,0,0,0,52.35,48.6l.424-.565a1.13,1.13,0,0,0,.034-1.306,11.655,11.655,0,0,0-6.879-4.85l-.565-.141a1.13,1.13,0,0,0-1.074.3l-1.509,1.5a1.566,1.566,0,0,1-2.17,0l-4.143-4.143a1.537,1.537,0,0,1,0-2.17l1.5-1.509a1.13,1.13,0,0,0,.3-1.068l-.141-.565A11.655,11.655,0,0,0,33.28,27.2a1.13,1.13,0,0,0-1.306.034l-.565.424A11.084,11.084,0,0,0,27,36.473a10.954,10.954,0,0,0,3.227,7.794ZM32.652,29.543a9.377,9.377,0,0,1,3.261,5.03l-1.057,1.051a3.8,3.8,0,0,0,0,5.37L39,45.137a3.883,3.883,0,0,0,5.37,0l1.051-1.051a9.337,9.337,0,0,1,5.042,3.267,8.806,8.806,0,0,1-6.93,3.391,8.7,8.7,0,0,1-6.217-2.566L31.8,42.667a8.7,8.7,0,0,1-2.566-6.217A8.806,8.806,0,0,1,32.652,29.543Z" transform="translate(0 -0.005)" fill="#1ee9a5"/><path d="M56.652,43.783a1.13,1.13,0,0,0,1.13-1.13V42.2a5.206,5.206,0,0,0-5.2-5.2H52.13a1.13,1.13,0,1,0,0,2.261h.452A2.939,2.939,0,0,1,55.522,42.2v.452A1.13,1.13,0,0,0,56.652,43.783Z" transform="translate(-10.435 -4.348)" fill="#1ee9a5"/><path d="M61.435,40.565a1.13,1.13,0,0,0,1.13-1.13V38.87A11.87,11.87,0,0,0,50.7,27H50.13a1.13,1.13,0,1,0,0,2.261H50.7A9.609,9.609,0,0,1,60.3,38.87v.565A1.13,1.13,0,0,0,61.435,40.565Z" transform="translate(-9.565 0)" fill="#1ee9a5"/></g></g></svg>